Coordinates
version=1
nRows=15
nColumns=42
inDegrees=yes

Units are S.I. units (second, meters, Newtons, ...)
If the header above contains a line with 'inDegrees', this indicates whether rotational values are in degrees (yes) or radians (no).

endheader
time	pelvis_tilt	pelvis_list	pelvis_rotation	pelvis_tx	pelvis_ty	pelvis_tz	hip_flexion_r	hip_adduction_r	hip_rotation_r	knee_angle_r	knee_adduction_r	knee_angle_r_beta	ankle_angle_r	subtalar_angle_r	mtp_angle_r	hip_flexion_l	hip_adduction_l	hip_rotation_l	knee_angle_l	knee_adduction_l	knee_angle_l_beta	ankle_angle_l	subtalar_angle_l	mtp_angle_l	lumbar_extension	lumbar_bending	lumbar_rotation	arm_flex_r	arm_add_r	arm_rot_r	elbow_flex_r	pro_sup_r	wrist_flex_r	wrist_dev_r	arm_flex_l	arm_add_l	arm_rot_l	elbow_flex_l	pro_sup_l	wrist_flex_l	wrist_dev_l
      1.20000000	     19.77077111	      3.53279689	      0.40994920	     -0.79775146	      0.90005394	     -0.06247198	      6.87662848	     -8.43339387	    -14.90676777	     61.70370662	     -5.93175241	      1.07693284	     14.54622014	    -13.51698603	     -7.69376728	    -13.31007106	      6.17076531	      1.20915696	     22.61980714	      4.20779985	      0.39479011	     21.77746642	      2.85889170	     -7.69376728	    -37.20480462	     -3.36637369	     -3.80175540	      4.88495269	     -4.05877783	    -25.20303989	     25.47798376	     90.00000001	      0.00000000	      0.00000000	     10.09215163	     -7.64334169	    -29.00712789	     34.05757942	     90.00000001	      0.00000000	      0.00000000
      1.21000000	     19.98372238	      3.42644080	      0.43324431	     -0.79031373	      0.90047660	     -0.06277200	      7.35383478	     -8.19749949	    -14.79286992	     59.42343153	     -5.52369978	      1.03713453	     14.01781664	    -14.27728940	     -7.68520843	    -14.52754523	      6.12125888	      1.14987347	     21.74641486	      3.97407971	      0.37954654	     22.39879000	      3.72265915	     -7.68520843	    -37.49586400	     -3.21235081	     -3.91865084	      4.70597659	     -3.99596858	    -26.88973208	     24.96899031	     90.00000001	      0.00000000	      0.00000000	     10.48783706	     -8.00160826	    -28.19569876	     33.97986144	     90.00000001	      0.00000000	      0.00000000
      1.22000000	     19.63555098	      3.59189048	      0.45552914	     -0.78326979	      0.89963883	     -0.06321496	      8.62652452	     -8.40850202	    -14.82271779	     57.48579668	     -5.20478156	      1.00331643	     13.94254470	    -14.05759909	     -7.68205126	    -14.72910845	      6.38598739	      0.83865490	     21.63027582	      3.70873870	      0.37751953	     22.69525778	      3.92610484	     -7.68205126	    -37.24846633	     -3.34718516	     -4.20379285	      4.28240347	     -3.99776398	    -27.11516479	     24.86584537	     90.00000001	      0.00000000	      0.00000000	     10.88110811	     -8.27733689	    -27.98105179	     34.13879422	     90.00000001	      0.00000000	      0.00000000
      1.23000000	     19.79256107	      3.55217575	      0.56664510	     -0.77594726	      0.89976018	     -0.06345751	      9.01004786	     -8.33376937	    -14.93312948	     55.08949002	     -4.73839118	      0.96149298	     13.31656665	    -14.63684738	     -7.67601316	    -15.71632247	      6.24101925	      0.41517308	     21.08088326	      3.64064281	      0.36793082	     23.30831748	      5.20106280	     -7.67601316	    -37.49719842	     -3.24269180	     -4.36835332	      4.00677948	     -3.97550970	    -28.22785981	     24.48298056	     90.00000001	      0.00000000	      0.00000000	     11.38988978	     -8.61623040	    -27.40959539	     34.03218879	     90.00000001	      0.00000000	      0.00000000
      1.24000000	     19.64110319	      3.44392217	      0.65953845	     -0.76868287	      0.89912083	     -0.06355062	      9.78549436	     -8.17257989	    -15.17921449	     52.76834314	     -4.42493555	      0.92098133	     12.78127024	    -14.98288076	     -7.66104610	    -16.02807162	      6.01714658	     -0.84125767	     21.22635321	      3.31143393	      0.37046975	     24.23482296	      7.16998471	     -7.66104610	    -37.42300609	     -3.11082737	     -4.44039613	      3.75532160	     -3.86813869	    -30.07864471	     24.22420155	     90.00000001	      0.00000000	      0.00000000	     11.75255975	     -8.89470144	    -26.79595240	     34.21351535	     90.00000001	      0.00000000	      0.00000000
      1.25000000	     19.54163840	      3.51349543	      0.76782389	     -0.76144279	      0.89858011	     -0.06384385	     10.40803750	     -8.25981920	    -15.39897092	     50.39015483	     -4.01892735	      0.87947411	     12.42245403	    -15.03418390	     -7.65557736	    -16.59695922	      6.05247094	     -1.36973053	     20.95146446	      3.09814883	      0.36567204	     24.67597232	      8.11299551	     -7.65557736	    -37.40969220	     -3.12461307	     -4.65837100	      3.33704304	     -3.89652725	    -30.45859368	     24.06304629	     90.00000001	      0.00000000	      0.00000000	     12.22816750	     -9.16148140	    -26.53007384	     34.18916052	     90.00000001	      0.00000000	      0.00000000
      1.26000000	     19.47065433	      3.43832992	      0.92237781	     -0.75418658	      0.89805356	     -0.06388890	     10.87652807	     -8.10665380	    -15.71113719	     47.86076261	     -3.69245098	      0.83532789	     11.91220471	    -15.12361591	     -7.64872437	    -17.09248929	      5.83019883	     -2.35419192	     20.87378104	      2.85564814	      0.36431621	     25.35479090	      9.73975730	     -7.64872437	    -37.43576328	     -3.00663022	     -4.78183598	      2.92735222	     -3.88899054	    -31.18563221	     23.94412178	     90.00000001	      0.00000000	      0.00000000	     12.69054647	     -9.42144388	    -26.17407153	     34.25617196	     90.00000001	      0.00000000	      0.00000000
      1.27000000	     18.93721960	      3.75091034	      0.98125133	     -0.74711980	      0.89645079	     -0.06402386	     12.15501227	     -8.60958906	    -16.04704979	     45.99110791	     -3.26758740	      0.80269626	     11.79702983	    -14.57775183	     -7.64670693	    -17.01619315	      6.05975354	     -2.90170544	     20.91663549	      2.85325111	      0.36506416	     25.42510717	      9.80269515	     -7.64670693	    -36.99335117	     -3.32810476	     -5.01051136	      2.35271744	     -3.88818636	    -31.22034878	     23.99510431	     90.00000001	      0.00000000	      0.00000000	     13.09800349	     -9.64158597	    -26.05883914	     34.56730998	     90.00000001	      0.00000000	      0.00000000
      1.28000000	     19.07733227	      3.33162042	      1.24106642	     -0.73961609	      0.89622043	     -0.06391287	     12.01316828	     -7.86894863	    -16.34979115	     42.91672303	     -3.02446212	      0.74903812	     11.11335372	    -14.94568282	     -7.63437361	    -17.52258325	      5.40402601	     -5.01652946	     21.31710208	      2.13523833	      0.37205362	     27.12295795	     13.84243667	     -7.63437361	    -37.18550387	     -2.82256181	     -5.03353669	      2.15584295	     -3.86587111	    -32.88536769	     23.66679419	     90.00000001	      0.00000000	      0.00000000	     13.54552959	     -9.89349049	    -25.51277255	     34.39654997	     90.00000001	      0.00000000	      0.00000000
      1.29000000	     18.67082831	      3.56855257	      1.39553238	     -0.73254550	      0.89491497	     -0.06404031	     12.85586751	     -8.12156999	    -16.52416169	     40.66523356	     -2.64781033	      0.70974222	     10.94200799	    -14.42243421	     -7.63176232	    -17.61465790	      5.67006429	     -5.42704232	     21.26717144	      1.76391763	      0.37118216	     27.37291731	     14.22551332	     -7.63176232	    -36.88173728	     -3.01911477	     -5.32905669	      1.68514381	     -3.87560064	    -32.98771289	     23.62888945	     90.00000001	      0.00000000	      0.00000000	     13.98695655	    -10.13744696	    -25.35191932	     34.46918188	     90.00000001	      0.00000000	      0.00000000
      1.30000000	     18.43487611	      3.66707203	      1.60540285	     -0.72530948	      0.89394211	     -0.06412709	     13.31893760	     -8.19059741	    -16.68975441	     38.21939214	     -2.19106491	      0.66705423	     10.63799377	    -13.89226356	     -7.62912970	    -17.90628942	      5.68136776	     -6.01730863	     21.21520295	      1.47939186	      0.37027514	     27.77476291	     15.10565626	     -7.62912970	    -36.73958167	     -3.05133412	     -5.55240969	      1.23422443	     -3.92696611	    -33.24332413	     23.53966329	     90.00000001	      0.00000000	      0.00000000	     14.45405479	    -10.35643827	    -25.14566546	     34.44866568	     90.00000001	      0.00000000	      0.00000000
      1.31000000	     18.48349602	      3.27544272	      1.81351300	     -0.71768977	      0.89330850	     -0.06353701	     13.26911940	     -7.54362276	    -17.11696322	     35.46321337	     -1.93348727	      0.61894984	     10.14332490	    -13.33283143	     -7.61810551	    -18.24142673	      4.77880795	     -8.34673018	     21.80190694	      1.22427392	      0.38051506	     29.16262101	     18.96024203	     -7.61810551	    -36.83211889	     -2.65266052	     -5.43126806	      0.90439271	     -3.85556505	    -34.65219999	     23.37254912	     90.00000001	      0.00000000	      0.00000000	     14.89594740	    -10.50497477	    -24.79807612	     34.45293232	     90.00000001	      0.00000000	      0.00000000
      1.32000000	     17.93660370	      3.62906677	      1.90998334	     -0.71046253	      0.89153598	     -0.06321472	     14.38745407	     -8.03397566	    -17.50289492	     33.87589700	     -1.55055898	      0.59124594	     10.01100117	    -12.73224551	     -7.61656569	    -18.16883352	      4.96882044	     -8.79715125	     21.84941119	      1.29046872	      0.38134416	     29.14188913	     18.86448215	     -7.61656569	    -36.37798980	     -3.06086156	     -5.61075737	      0.32057942	     -3.78565944	    -34.64779173	     23.41311697	     90.00000001	      0.00000000	      0.00000000	     15.29929504	    -10.68016728	    -24.70058992	     34.74147264	     90.00000001	      0.00000000	      0.00000000
      1.33000000	     18.10047854	      3.34388666	      2.22850396	     -0.70297127	      0.89139132	     -0.06298802	     13.84925968	     -7.38421550	    -17.41474506	     30.67020732	     -1.21286180	      0.53529610	      9.77592508	    -11.31943962	     -7.61169351	    -18.84256314	      4.45747622	     -9.84923601	     21.92599066	      0.79984594	      0.38268073	     29.94297605	     21.17964272	     -7.61169351	    -36.63192949	     -2.65082451	     -5.71584665	      0.02148780	     -3.84489531	    -35.31151264	     23.25217435	     90.00000001	      0.00000000	      0.00000000	     15.79967547	    -10.84354734	    -24.43796578	     34.40927371	     90.00000001	      0.00000000	      0.00000000
      1.34000000	     17.80274498	      3.34810892	      2.46079519	     -0.69548941	      0.89010377	     -0.06264461	     14.29122219	     -7.26891129	    -17.81092780	     28.55741701	     -1.06336284	      0.49842095	      9.65933249	     -9.78983462	     -7.60375856	    -18.80608120	      4.16991390	    -11.29552781	     22.43211163	      0.39793288	      0.39151421	     30.75513259	     23.39576032	     -7.60375856	    -36.40855499	     -2.61904864	     -5.84482576	     -0.35877996	     -3.80465943	    -36.14748410	     23.19076076	     90.00000001	      0.00000000	      0.00000000	     16.16631953	    -10.98192728	    -24.28537867	     34.51281220	     90.00000001	      0.00000000	      0.00000000
